<svg xmlns="http://www.w3.org/2000/svg" xmlns:xlink="http://www.w3.org/1999/xlink" width="400" zoomAndPan="magnify" viewBox="0 0 300 299.999988" height="400" preserveAspectRatio="xMidYMid meet" version="1.0"><defs><g/><clipPath id="014a8b2400"><path d="M 30 117.109375 L 77.554688 117.109375 L 77.554688 183.109375 L 30 183.109375 Z M 30 117.109375 " clip-rule="nonzero"/></clipPath><clipPath id="3f78b65322"><path d="M 11.589844 117.109375 L 43 117.109375 L 43 183.109375 L 11.589844 183.109375 Z M 11.589844 117.109375 " clip-rule="nonzero"/></clipPath></defs><g clip-path="url(#014a8b2400)"><path fill="#0e387a" d="M 65.164062 138.472656 C 63.472656 138.472656 61.757812 138.472656 60.046875 138.472656 C 59.722656 138.472656 59.605469 138.21875 59.441406 138.023438 C 56.300781 134.253906 52.332031 131.9375 47.476562 131.171875 C 47.046875 131.105469 46.886719 130.953125 46.890625 130.503906 C 46.90625 126.226562 46.917969 121.949219 46.894531 117.671875 C 46.890625 116.972656 47.296875 117.105469 47.6875 117.140625 C 51.871094 117.507812 55.839844 118.640625 59.558594 120.578125 C 67.785156 124.863281 73.316406 131.460938 76.1875 140.285156 C 76.902344 142.488281 77.296875 144.765625 77.539062 147.070312 C 77.601562 147.671875 77.414062 147.800781 76.847656 147.800781 C 69.53125 147.785156 62.222656 147.769531 54.910156 147.816406 C 54.082031 147.820312 54.046875 147.300781 53.871094 146.820312 C 52.375 142.746094 48.636719 140.140625 44.371094 140.210938 C 39.429688 140.300781 35.347656 144.070312 34.757812 149.09375 C 34.195312 153.863281 37.414062 158.496094 42.109375 159.667969 C 47.136719 160.925781 52.097656 158.300781 53.847656 153.398438 C 54.113281 152.648438 54.429688 152.394531 55.246094 152.398438 C 62.324219 152.4375 69.402344 152.417969 76.480469 152.417969 C 77.609375 152.417969 77.632812 152.421875 77.492188 153.570312 C 76.300781 163.398438 71.746094 171.269531 63.746094 177.089844 C 59.214844 180.386719 54.117188 182.304688 48.5625 182.992188 C 48.269531 183.027344 47.976562 183.027344 47.6875 183.078125 C 47.105469 183.1875 46.882812 183.027344 46.882812 182.367188 C 46.914062 178.207031 46.90625 174.046875 46.894531 169.886719 C 46.894531 169.390625 46.957031 169.109375 47.5625 169.015625 C 52.230469 168.296875 56.089844 166.09375 59.144531 162.507812 C 59.65625 161.90625 60.160156 161.671875 60.921875 161.710938 C 62.117188 161.761719 63.320312 161.757812 64.519531 161.714844 C 65.246094 161.691406 65.316406 161.878906 64.949219 162.46875 C 62.425781 166.527344 59.03125 169.609375 54.726562 171.664062 C 54.015625 172.003906 53.296875 172.375 52.539062 172.542969 C 51.652344 172.742188 51.464844 173.207031 51.523438 174.019531 C 51.589844 174.957031 51.589844 175.894531 51.523438 176.832031 C 51.46875 177.605469 51.730469 177.691406 52.40625 177.488281 C 57.414062 175.988281 61.738281 173.378906 65.320312 169.550781 C 68.492188 166.160156 70.710938 162.222656 71.972656 157.746094 C 72.132812 157.175781 72.027344 157.0625 71.453125 157.0625 C 66.949219 157.085938 62.445312 157.082031 57.941406 157.058594 C 57.382812 157.054688 57.183594 157.332031 56.945312 157.71875 C 51.242188 167.027344 37.597656 166.90625 32.058594 157.503906 C 27.085938 149.078125 31.6875 138.257812 41.210938 135.96875 C 42.699219 135.613281 44.207031 135.492188 45.734375 135.613281 C 47.261719 135.734375 48.730469 136.089844 50.144531 136.675781 C 51.558594 137.265625 52.847656 138.058594 54.007812 139.054688 C 55.171875 140.054688 56.152344 141.207031 56.949219 142.519531 C 57.21875 142.960938 57.484375 143.175781 58.039062 143.171875 C 62.457031 143.144531 66.875 143.144531 71.289062 143.171875 C 72.050781 143.175781 72.140625 142.996094 71.921875 142.300781 C 68.800781 132.332031 62.25 125.832031 52.320312 122.703125 C 51.679688 122.503906 51.5 122.644531 51.527344 123.304688 C 51.570312 124.417969 51.570312 125.53125 51.527344 126.644531 C 51.503906 127.191406 51.71875 127.375 52.210938 127.542969 C 57.699219 129.429688 61.941406 132.886719 64.980469 137.832031 C 65.082031 137.992188 65.253906 138.148438 65.164062 138.472656 Z M 65.164062 138.472656 " fill-opacity="1" fill-rule="nonzero"/></g><g clip-path="url(#3f78b65322)"><path fill="#0e387a" d="M 18.566406 147.792969 C 16.464844 147.792969 14.359375 147.785156 12.253906 147.800781 C 11.761719 147.804688 11.554688 147.753906 11.617188 147.132812 C 12.980469 133.292969 22.308594 122.015625 35.621094 118.207031 C 37.566406 117.644531 39.542969 117.285156 41.558594 117.125 C 42.074219 117.089844 42.289062 117.171875 42.261719 117.757812 C 42.214844 118.835938 42.222656 119.921875 42.261719 121.003906 C 42.28125 121.539062 42.152344 121.742188 41.566406 121.804688 C 37.082031 122.285156 32.914062 123.730469 29.136719 126.207031 C 23.351562 130.007812 19.4375 135.25 17.34375 141.851562 C 17.273438 142.074219 17.242188 142.3125 17.167969 142.53125 C 16.996094 143.015625 17.117188 143.1875 17.660156 143.167969 C 18.742188 143.125 19.828125 143.105469 20.90625 143.171875 C 21.582031 143.214844 21.863281 142.972656 22.078125 142.351562 C 23.863281 137.160156 27.089844 133.082031 31.667969 130.085938 C 34.621094 128.152344 37.863281 126.984375 41.355469 126.480469 C 42.085938 126.375 42.324219 126.535156 42.269531 127.300781 C 42.199219 128.347656 42.226562 129.410156 42.261719 130.460938 C 42.277344 130.941406 42.117188 131.109375 41.648438 131.183594 C 35.832031 132.132812 31.375 135.152344 28.234375 140.121094 C 26.945312 142.167969 26.0625 144.398438 25.746094 146.808594 C 25.636719 147.625 25.335938 147.839844 24.535156 147.816406 C 22.546875 147.75 20.554688 147.792969 18.566406 147.792969 Z M 17.023438 157.074219 C 17.683594 159.847656 18.730469 162.378906 20.1875 164.722656 C 24.773438 172.105469 31.308594 176.644531 39.890625 178.160156 C 40.179688 178.210938 40.460938 178.292969 40.753906 178.328125 C 42.25 178.507812 42.25 178.507812 42.25 179.96875 C 42.25 180.730469 42.191406 181.496094 42.269531 182.25 C 42.351562 183.046875 42.03125 183.148438 41.335938 183.078125 C 37.195312 182.660156 33.25 181.554688 29.558594 179.625 C 21.230469 175.257812 15.664062 168.574219 12.855469 159.570312 C 12.183594 157.417969 11.804688 155.199219 11.597656 152.949219 C 11.542969 152.351562 11.863281 152.417969 12.214844 152.417969 L 19.230469 152.417969 C 21.042969 152.417969 22.855469 152.457031 24.667969 152.402344 C 25.375 152.378906 25.609375 152.609375 25.71875 153.285156 C 26.597656 158.578125 29.300781 162.742188 33.640625 165.835938 C 36.03125 167.542969 38.695312 168.625 41.613281 169.019531 C 42.148438 169.09375 42.277344 169.308594 42.261719 169.8125 C 42.226562 170.867188 42.203125 171.925781 42.265625 172.972656 C 42.3125 173.703125 42.070312 173.847656 41.394531 173.75 C 35.789062 172.917969 31.027344 170.476562 27.144531 166.335938 C 24.851562 163.894531 23.152344 161.085938 22.089844 157.902344 C 21.882812 157.285156 21.632812 157.019531 20.941406 157.054688 C 19.660156 157.121094 18.375 157.074219 17.023438 157.074219 Z M 17.023438 157.074219 " fill-opacity="1" fill-rule="nonzero"/></g><g fill="#092b37" fill-opacity="1"><g transform="translate(83.355498, 159.92218)"><g><path d="M 15 0.5 C 12.707031 0.5 10.722656 0.140625 9.046875 -0.578125 C 7.367188 -1.304688 5.976562 -2.28125 4.875 -3.5 C 3.769531 -4.71875 2.953125 -6.101562 2.421875 -7.65625 C 1.890625 -9.21875 1.625 -10.832031 1.625 -12.5 C 1.625 -14.164062 1.894531 -15.789062 2.4375 -17.375 C 2.988281 -18.957031 3.8125 -20.382812 4.90625 -21.65625 C 6.007812 -22.925781 7.398438 -23.9375 9.078125 -24.6875 C 10.753906 -25.4375 12.726562 -25.8125 15 -25.8125 C 16.71875 -25.8125 18.367188 -25.492188 19.953125 -24.859375 C 21.535156 -24.234375 22.976562 -23.269531 24.28125 -21.96875 L 21.5625 -19.359375 C 20.644531 -20.253906 19.617188 -20.910156 18.484375 -21.328125 C 17.347656 -21.753906 16.1875 -21.96875 15 -21.96875 C 13.382812 -21.96875 11.984375 -21.703125 10.796875 -21.171875 C 9.617188 -20.640625 8.648438 -19.921875 7.890625 -19.015625 C 7.128906 -18.109375 6.566406 -17.09375 6.203125 -15.96875 C 5.835938 -14.84375 5.65625 -13.703125 5.65625 -12.546875 C 5.65625 -11.378906 5.835938 -10.242188 6.203125 -9.140625 C 6.566406 -8.046875 7.128906 -7.054688 7.890625 -6.171875 C 8.648438 -5.296875 9.617188 -4.597656 10.796875 -4.078125 C 11.984375 -3.554688 13.382812 -3.296875 15 -3.296875 C 16.1875 -3.296875 17.382812 -3.53125 18.59375 -4 C 19.800781 -4.476562 20.851562 -5.160156 21.75 -6.046875 L 24.546875 -3.265625 C 23.234375 -1.960938 21.757812 -1.007812 20.125 -0.40625 C 18.5 0.195312 16.789062 0.5 15 0.5 Z M 15 0.5 "/></g></g></g><g fill="#092b37" fill-opacity="1"><g transform="translate(110.14158, 159.92218)"><g><path d="M 14.609375 0.5 C 12.410156 0.5 10.492188 0.140625 8.859375 -0.578125 C 7.234375 -1.304688 5.882812 -2.289062 4.8125 -3.53125 C 3.75 -4.78125 2.953125 -6.175781 2.421875 -7.71875 C 1.890625 -9.269531 1.625 -10.878906 1.625 -12.546875 C 1.625 -14.472656 1.941406 -16.238281 2.578125 -17.84375 C 3.222656 -19.457031 4.125 -20.863281 5.28125 -22.0625 C 6.445312 -23.257812 7.828125 -24.179688 9.421875 -24.828125 C 11.015625 -25.484375 12.769531 -25.8125 14.6875 -25.8125 C 16.851562 -25.8125 18.738281 -25.445312 20.34375 -24.71875 C 21.957031 -24 23.300781 -23.007812 24.375 -21.75 C 25.445312 -20.488281 26.25 -19.070312 26.78125 -17.5 C 27.320312 -15.9375 27.59375 -14.296875 27.59375 -12.578125 C 27.59375 -10.890625 27.320312 -9.257812 26.78125 -7.6875 C 26.25 -6.113281 25.453125 -4.707031 24.390625 -3.46875 C 23.328125 -2.238281 21.976562 -1.269531 20.34375 -0.5625 C 18.71875 0.144531 16.804688 0.5 14.609375 0.5 Z M 14.609375 -3.21875 C 16.710938 -3.21875 18.421875 -3.660156 19.734375 -4.546875 C 21.054688 -5.429688 22.023438 -6.578125 22.640625 -7.984375 C 23.253906 -9.398438 23.5625 -10.90625 23.5625 -12.5 C 23.5625 -13.664062 23.390625 -14.820312 23.046875 -15.96875 C 22.710938 -17.113281 22.179688 -18.144531 21.453125 -19.0625 C 20.734375 -19.976562 19.816406 -20.710938 18.703125 -21.265625 C 17.585938 -21.828125 16.25 -22.109375 14.6875 -22.109375 C 12.726562 -22.109375 11.078125 -21.691406 9.734375 -20.859375 C 8.390625 -20.023438 7.375 -18.882812 6.6875 -17.4375 C 6 -15.988281 5.65625 -14.34375 5.65625 -12.5 C 5.65625 -11.394531 5.820312 -10.289062 6.15625 -9.1875 C 6.5 -8.09375 7.03125 -7.09375 7.75 -6.1875 C 8.476562 -5.28125 9.410156 -4.554688 10.546875 -4.015625 C 11.679688 -3.484375 13.035156 -3.21875 14.609375 -3.21875 Z M 14.609375 -3.21875 "/></g></g></g><g fill="#092b37" fill-opacity="1"><g transform="translate(140.661011, 159.92218)"><g><path d="M 3.1875 0 L 3.1875 -25.375 L 15 -25.375 C 16.957031 -25.375 18.601562 -24.976562 19.9375 -24.1875 C 21.269531 -23.40625 22.273438 -22.378906 22.953125 -21.109375 C 23.628906 -19.847656 23.96875 -18.503906 23.96875 -17.078125 C 23.96875 -15.890625 23.742188 -14.734375 23.296875 -13.609375 C 22.847656 -12.484375 22.113281 -11.519531 21.09375 -10.71875 C 20.082031 -9.925781 18.742188 -9.410156 17.078125 -9.171875 L 24.65625 -0.71875 L 25.078125 0 L 20.34375 0 L 12.609375 -8.765625 L 7.25 -8.765625 L 7.25 0 Z M 7.25 -12.46875 L 14.96875 -12.46875 C 16.632812 -12.46875 17.859375 -12.921875 18.640625 -13.828125 C 19.429688 -14.734375 19.828125 -15.789062 19.828125 -17 C 19.828125 -17.769531 19.65625 -18.503906 19.3125 -19.203125 C 18.976562 -19.910156 18.453125 -20.492188 17.734375 -20.953125 C 17.023438 -21.410156 16.113281 -21.640625 15 -21.640625 L 7.25 -21.640625 Z M 7.25 -12.46875 "/></g></g></g><g fill="#092b37" fill-opacity="1"><g transform="translate(168.099518, 159.92218)"><g><path d="M 8.953125 0 L 8.953125 -21.71875 L 0.609375 -21.71875 L 0.609375 -25.375 L 21.34375 -25.375 L 21.34375 -21.71875 L 13.046875 -21.71875 L 13.046875 0 Z M 8.953125 0 "/></g></g></g><g fill="#092b37" fill-opacity="1"><g transform="translate(191.369726, 159.92218)"><g><path d="M 3.1875 0 L 3.1875 -25.375 L 7.21875 -25.375 L 7.21875 0 Z M 3.1875 0 "/></g></g></g><g fill="#092b37" fill-opacity="1"><g transform="translate(203.07742, 159.92218)"><g><path d="M 3.1875 0 L 3.1875 -25.375 L 21.140625 -25.375 L 21.140625 -21.421875 L 7.25 -21.421875 L 7.25 -13.671875 L 20.4375 -13.671875 L 20.4375 -9.890625 L 7.25 -9.890625 L 7.25 0 Z M 3.1875 0 "/></g></g></g><g fill="#092b37" fill-opacity="1"><g transform="translate(227.072554, 159.92218)"><g><path d="M 14.609375 0.5 C 12.410156 0.5 10.492188 0.140625 8.859375 -0.578125 C 7.234375 -1.304688 5.882812 -2.289062 4.8125 -3.53125 C 3.75 -4.78125 2.953125 -6.175781 2.421875 -7.71875 C 1.890625 -9.269531 1.625 -10.878906 1.625 -12.546875 C 1.625 -14.472656 1.941406 -16.238281 2.578125 -17.84375 C 3.222656 -19.457031 4.125 -20.863281 5.28125 -22.0625 C 6.445312 -23.257812 7.828125 -24.179688 9.421875 -24.828125 C 11.015625 -25.484375 12.769531 -25.8125 14.6875 -25.8125 C 16.851562 -25.8125 18.738281 -25.445312 20.34375 -24.71875 C 21.957031 -24 23.300781 -23.007812 24.375 -21.75 C 25.445312 -20.488281 26.25 -19.070312 26.78125 -17.5 C 27.320312 -15.9375 27.59375 -14.296875 27.59375 -12.578125 C 27.59375 -10.890625 27.320312 -9.257812 26.78125 -7.6875 C 26.25 -6.113281 25.453125 -4.707031 24.390625 -3.46875 C 23.328125 -2.238281 21.976562 -1.269531 20.34375 -0.5625 C 18.71875 0.144531 16.804688 0.5 14.609375 0.5 Z M 14.609375 -3.21875 C 16.710938 -3.21875 18.421875 -3.660156 19.734375 -4.546875 C 21.054688 -5.429688 22.023438 -6.578125 22.640625 -7.984375 C 23.253906 -9.398438 23.5625 -10.90625 23.5625 -12.5 C 23.5625 -13.664062 23.390625 -14.820312 23.046875 -15.96875 C 22.710938 -17.113281 22.179688 -18.144531 21.453125 -19.0625 C 20.734375 -19.976562 19.816406 -20.710938 18.703125 -21.265625 C 17.585938 -21.828125 16.25 -22.109375 14.6875 -22.109375 C 12.726562 -22.109375 11.078125 -21.691406 9.734375 -20.859375 C 8.390625 -20.023438 7.375 -18.882812 6.6875 -17.4375 C 6 -15.988281 5.65625 -14.34375 5.65625 -12.5 C 5.65625 -11.394531 5.820312 -10.289062 6.15625 -9.1875 C 6.5 -8.09375 7.03125 -7.09375 7.75 -6.1875 C 8.476562 -5.28125 9.410156 -4.554688 10.546875 -4.015625 C 11.679688 -3.484375 13.035156 -3.21875 14.609375 -3.21875 Z M 14.609375 -3.21875 "/></g></g></g><g fill="#092b37" fill-opacity="1"><g transform="translate(257.591988, 159.92218)"><g><path d="M 0.328125 0 L 0.328125 -0.109375 L 9.25 -12.875 L 0.6875 -25.1875 L 0.6875 -25.375 L 5.140625 -25.375 L 11.859375 -15.546875 L 18.53125 -25.375 L 22.984375 -25.375 L 22.984375 -25.1875 L 14.390625 -12.875 L 23.34375 -0.109375 L 23.34375 0 L 18.734375 0 L 11.859375 -10.046875 L 4.9375 0 Z M 0.328125 0 "/></g></g></g></svg>